<svg xmlns="http://www.w3.org/2000/svg" version="1.1" xmlns:xlink="http://www.w3.org/1999/xlink" xmlns:svgjs="http://svgjs.com/svgjs" width="1440" height="560" preserveAspectRatio="none" viewBox="0 0 1440 560"><g mask="url(&quot;#SvgjsMask1006&quot;)" fill="none"><rect width="1440" height="560" x="0" y="0" fill="url(#SvgjsLinearGradient1007)"></rect><path d="M1440 0L845.48 0L1440 5.04z" fill="rgba(255, 255, 255, .1)"></path><path d="M845.48 0L1440 5.04L1440 226.03L562.79 0z" fill="rgba(255, 255, 255, .075)"></path><path d="M562.79 0L1440 226.03L1440 318.56L322.03 0z" fill="rgba(255, 255, 255, .05)"></path><path d="M322.03 0L1440 318.56L1440 433.65L271.33 0z" fill="rgba(255, 255, 255, .025)"></path><path d="M0 560L533.84 560L0 328.35z" fill="rgba(0, 0, 0, .1)"></path><path d="M0 328.35L533.84 560L911.8800000000001 560L0 182.02z" fill="rgba(0, 0, 0, .075)"></path><path d="M0 182.01999999999998L911.8800000000001 560L1236.93 560L0 77.95999999999998z" fill="rgba(0, 0, 0, .05)"></path><path d="M0 77.95999999999998L1236.93 560L1256.3100000000002 560L0 65.10999999999999z" fill="rgba(0, 0, 0, .025)"></path></g><defs><mask id="SvgjsMask1006"><rect width="1440" height="560" fill="#ffffff"></rect></mask><linearGradient x1="15.28%" y1="-39.29%" x2="84.72%" y2="139.29%" gradientUnits="userSpaceOnUse" id="SvgjsLinearGradient1007"><stop stop-color="#0e2a47" offset="0"></stop><stop stop-color="rgba(5, 29, 65, 1)" offset="1"></stop></linearGradient></defs></svg>